<!--
  - Copyright 2022-2026 Virogu
  -
  - Licensed under the Apache License, Version 2.0 (the "License");
  - you may not use this file except in compliance with the License.
  - You may obtain a copy of the License at
  -
  -     https://www.apache.org/licenses/LICENSE-2.0
  -
  - Unless required by applicable law or agreed to in writing, software
  - distributed under the License is distributed on an "AS IS" BASIS,
  - WITHOUT WARRANTIES OR CONDITIONS OF ANY KIND, either express or implied.
  - See the License for the specific language governing permissions and
  - limitations under the License.
  -
  -->

<svg xmlns="http://www.w3.org/2000/svg" height="24" viewBox="0 -960 960 960" width="24">
    <path d="M480-80 310-250l57-57 73 73v-206H235l73 72-58 58L80-480l169-169 57 57-72 72h206v-206l-73 73-57-57 170-170 170 170-57 57-73-73v206h205l-73-72 58-58 170 170-170 170-57-57 73-73H520v205l72-73 58 58L480-80Z"/>
</svg>