<!--
  - Copyright 2022-2026 Virogu
  -
  - Licensed under the Apache License, Version 2.0 (the "License");
  - you may not use this file except in compliance with the License.
  - You may obtain a copy of the License at
  -
  -     https://www.apache.org/licenses/LICENSE-2.0
  -
  - Unless required by applicable law or agreed to in writing, software
  - distributed under the License is distributed on an "AS IS" BASIS,
  - WITHOUT WARRANTIES OR CONDITIONS OF ANY KIND, either express or implied.
  - See the License for the specific language governing permissions and
  - limitations under the License.
  -
  -->

<svg xmlns="http://www.w3.org/2000/svg" enable-background="new 0 0 24 24" height="24px" viewBox="0 0 24 24" width="24px"
     fill="#000000">
    <g>
        <path d="M0,0h24v24H0V0z" fill="none"/>
    </g>
    <g>
        <path d="M15.73,3H8.27L3,8.27v7.46L8.27,21h7.46L21,15.73V8.27L15.73,3z M19,14.9L14.9,19H9.1L5,14.9V9.1L9.1,5h5.8L19,9.1V14.9z M14.83,7.76L12,10.59L9.17,7.76L7.76,9.17L10.59,12l-2.83,2.83l1.41,1.41L12,13.41l2.83,2.83l1.41-1.41L13.41,12l2.83-2.83 L14.83,7.76z"/>
    </g>
</svg>