<!--
  - Copyright 2022-2026 Virogu
  -
  - Licensed under the Apache License, Version 2.0 (the "License");
  - you may not use this file except in compliance with the License.
  - You may obtain a copy of the License at
  -
  -     https://www.apache.org/licenses/LICENSE-2.0
  -
  - Unless required by applicable law or agreed to in writing, software
  - distributed under the License is distributed on an "AS IS" BASIS,
  - WITHOUT WARRANTIES OR CONDITIONS OF ANY KIND, either express or implied.
  - See the License for the specific language governing permissions and
  - limitations under the License.
  -
  -->

<svg xmlns="http://www.w3.org/2000/svg" height="48" viewBox="0 -960 960 960" width="48">
    <path d="M80-160v-90h80v-490q0-24.75 17.625-42.375T220-800h620v60H220v490h240v90H80Zm470 0q-12.75 0-21.375-8.625T520-190v-460q0-12.75 8.625-21.375T550-680h300q12.75 0 21.375 8.625T880-650v460q0 12.75-8.625 21.375T850-160H550Zm30-90h240v-370H580v370Zm0 0h240-240Z"/>
</svg>