<!--
  - Copyright 2022-2026 Virogu
  -
  - Licensed under the Apache License, Version 2.0 (the "License");
  - you may not use this file except in compliance with the License.
  - You may obtain a copy of the License at
  -
  -     https://www.apache.org/licenses/LICENSE-2.0
  -
  - Unless required by applicable law or agreed to in writing, software
  - distributed under the License is distributed on an "AS IS" BASIS,
  - WITHOUT WARRANTIES OR CONDITIONS OF ANY KIND, either express or implied.
  - See the License for the specific language governing permissions and
  - limitations under the License.
  -
  -->

<svg xmlns="http://www.w3.org/2000/svg" height="48" viewBox="0 -960 960 960" width="48">
    <path d="M220-80q-24 0-42-18t-18-42v-680q0-24 18-42t42-18h361l219 219v521q0 24-18 42t-42 18H220Zm0-60h520v-494H554v-186H220v680Zm260.264-80Q539-220 579.5-261.125 620-302.25 620-360v-140h-40v140q0 42-28.75 71T480-260q-42 0-71-29t-29-71v-220q0-18 11.5-29t28.5-11q18 0 29 11t11 29v200h40v-200q0-33.6-23.077-56.8-23.078-23.2-56.5-23.2Q387-660 363.5-636.8T340-580v220q0 57.75 41.203 98.875Q422.405-220 480.264-220ZM220-820v186-186 680-680Z"/>
</svg>