<!--
  - Copyright 2022-2026 Virogu
  -
  - Licensed under the Apache License, Version 2.0 (the "License");
  - you may not use this file except in compliance with the License.
  - You may obtain a copy of the License at
  -
  -     https://www.apache.org/licenses/LICENSE-2.0
  -
  - Unless required by applicable law or agreed to in writing, software
  - distributed under the License is distributed on an "AS IS" BASIS,
  - WITHOUT WARRANTIES OR CONDITIONS OF ANY KIND, either express or implied.
  - See the License for the specific language governing permissions and
  - limitations under the License.
  -
  -->

<svg xmlns="http://www.w3.org/2000/svg" height="48" viewBox="0 -960 960 960" width="48">
    <path d="M377-377v-205h205v205H377Zm-17 257v-80H260q-24 0-42-18t-18-42v-100h-80v-60h80v-124h-80v-60h80v-100q0-24 18-42t42-18h100v-76h60v76h124v-76h60v76h100q24 0 42 18t18 42v100h76v60h-76v124h76v60h-76v100q0 24-18 42t-42 18H604v80h-60v-80H420v80h-60Zm344-140v-444H260v444h444Z"/>
</svg>