<!--
  - Copyright 2022-2026 Virogu
  -
  - Licensed under the Apache License, Version 2.0 (the "License");
  - you may not use this file except in compliance with the License.
  - You may obtain a copy of the License at
  -
  -     https://www.apache.org/licenses/LICENSE-2.0
  -
  - Unless required by applicable law or agreed to in writing, software
  - distributed under the License is distributed on an "AS IS" BASIS,
  - WITHOUT WARRANTIES OR CONDITIONS OF ANY KIND, either express or implied.
  - See the License for the specific language governing permissions and
  - limitations under the License.
  -
  -->

<svg xmlns="http://www.w3.org/2000/svg" height="24" viewBox="0 -960 960 960" width="24">
    <path d="M440-440v-400h80v400h-80Zm40 320q-74 0-139.5-28.5T226-226q-49-49-77.5-114.5T120-480q0-80 33-151t93-123l56 56q-48 40-75 97t-27 121q0 116 82 198t198 82q117 0 198.5-82T760-480q0-64-26.5-121T658-698l56-56q60 52 93 123t33 151q0 74-28.5 139.5t-77 114.5q-48.5 49-114 77.5T480-120Z"/>
</svg>