<!--
  - Copyright 2022-2026 Virogu
  -
  - Licensed under the Apache License, Version 2.0 (the "License");
  - you may not use this file except in compliance with the License.
  - You may obtain a copy of the License at
  -
  -     https://www.apache.org/licenses/LICENSE-2.0
  -
  - Unless required by applicable law or agreed to in writing, software
  - distributed under the License is distributed on an "AS IS" BASIS,
  - WITHOUT WARRANTIES OR CONDITIONS OF ANY KIND, either express or implied.
  - See the License for the specific language governing permissions and
  - limitations under the License.
  -
  -->

<svg xmlns="http://www.w3.org/2000/svg" height="24" viewBox="0 -960 960 960" width="24">
    <path d="M480-280v-60h100v-100h60v160H480ZM320-520v-160h160v60H380v100h-60ZM280-40q-33 0-56.5-23.5T200-120v-720q0-33 23.5-56.5T280-920h400q33 0 56.5 23.5T760-840v720q0 33-23.5 56.5T680-40H280Zm0-120v40h400v-40H280Zm0-80h400v-480H280v480Zm0-560h400v-40H280v40Zm0 0v-40 40Zm0 640v40-40Z"/>
</svg>