<!--
  - Copyright 2022-2026 Virogu
  -
  - Licensed under the Apache License, Version 2.0 (the "License");
  - you may not use this file except in compliance with the License.
  - You may obtain a copy of the License at
  -
  -     https://www.apache.org/licenses/LICENSE-2.0
  -
  - Unless required by applicable law or agreed to in writing, software
  - distributed under the License is distributed on an "AS IS" BASIS,
  - WITHOUT WARRANTIES OR CONDITIONS OF ANY KIND, either express or implied.
  - See the License for the specific language governing permissions and
  - limitations under the License.
  -
  -->

<svg xmlns="http://www.w3.org/2000/svg" height="24" viewBox="0 -960 960 960" width="24">
    <path d="M160-80q-33 0-56.5-23.5T80-160v-360q0-33 23.5-56.5T160-600h80v-200q0-33 23.5-56.5T320-880h480q33 0 56.5 23.5T880-800v360q0 33-23.5 56.5T800-360h-80v200q0 33-23.5 56.5T640-80H160Zm0-80h480v-280H160v280Zm560-280h80v-280H320v120h320q33 0 56.5 23.5T720-520v80Z"/>
</svg>