<?xml version="1.0" standalone="no"?><!DOCTYPE svg PUBLIC "-//W3C//DTD SVG 1.1//EN"
        "http://www.w3.org/Graphics/SVG/1.1/DTD/svg11.dtd">
<svg t="1690793896083" class="icon" viewBox="0 0 1024 1024" version="1.1" xmlns="http://www.w3.org/2000/svg" p-id="7049"
     width="200" height="200">
    <path d="M537.905 210.273h79.387v79.386c0 17.673 14.327 32 32 32s32-14.327 32-32V178.273c0-17.673-14.327-32-32-32H537.905c-17.673 0-32 14.327-32 32s14.327 32 32 32zM345.148 807.829h-79.386v-79.387c0-17.673-14.327-32-32-32s-32 14.327-32 32v111.387c0 17.673 14.327 32 32 32h111.386c17.673 0 32-14.327 32-32s-14.327-32-32-32zM357.576 133.381H102.004c-19.851 0-36 16.149-36 36v460.936c0 19.851 16.149 36 36 36h255.572c19.851 0 36-16.149 36-36V169.381c0-19.85-16.149-36-36-36zM234.183 600.599c-12.131 0-21.964-9.834-21.964-21.964 0-12.132 9.833-21.965 21.964-21.965 12.131 0 21.964 9.833 21.964 21.965 0 12.13-9.833 21.964-21.964 21.964z m95.393-79.071H130.004V197.381h199.572v324.147zM947.06 818.596l-31.117-21.782c-11.532-8.072-35.055-14.12-53.246-14.12H722.133v-17.611H900.04c19.851 0 36-16.149 36-36V398.076c0-19.851-16.149-36-36-36H469.81c-19.851 0-36 16.149-36 36v331.008c0 19.851 16.149 36 36 36h186.175v17.611h-165.37c-18.191 0-41.714 6.048-53.246 14.12l-31.117 21.782c-16.411 11.487-10.897 21.978 14.158 21.978H932.9c25.057-0.001 30.571-10.491 14.16-21.979zM497.81 701.084V426.076h374.23v275.008H497.81z"
          fill="" p-id="7050"></path>
</svg>