<?xml version="1.0" standalone="no"?><!DOCTYPE svg PUBLIC "-//W3C//DTD SVG 1.1//EN"
        "http://www.w3.org/Graphics/SVG/1.1/DTD/svg11.dtd">
<svg t="1690872421997" class="icon" viewBox="0 0 1024 1024" version="1.1" xmlns="http://www.w3.org/2000/svg" p-id="4954"
     width="200" height="200">
    <path d="M151.905 0c-13.652 0-25.597 5.12-34.13 15.358-10.239 10.239-15.358 22.184-15.358 35.836v921.493c0 13.651 5.12 25.597 15.358 35.835 8.533 10.24 20.478 15.359 34.13 15.359H868.62c13.652 0 25.597-5.12 34.13-15.359 8.532-10.238 15.358-22.184 15.358-35.835V290.099L641.66 0H151.905z"
          fill="#C5C5C5" p-id="4955"></path>
    <path d="M921.522 295.219h-232.08c-13.652 0-25.597-5.12-34.13-15.358-10.238-10.24-15.358-22.184-15.358-35.836V0l281.568 295.219z"
          fill="#EDEDED" p-id="4956"></path>
    <path d="M585.347 373.716c-22.184-17.064-49.487-25.597-78.497-23.89-32.423 0-63.14 10.239-90.443 27.303l-3.413 1.707v76.79l15.358-17.064c18.772-20.477 44.369-32.423 73.378-32.423 13.652 0 27.304 3.413 37.543 11.946 8.532 6.825 13.652 18.77 13.652 30.716 0 8.532-1.707 17.065-5.12 23.89-10.239 15.359-22.184 30.717-35.836 42.662-15.358 13.652-29.01 30.717-39.248 49.488-5.12 11.945-8.533 23.89-8.533 35.836 0 13.651 1.707 29.01 6.826 40.955l1.707 5.12h64.845l-5.12-11.946c-5.119-10.239-6.825-22.184-8.531-34.13 0-8.532 3.412-17.064 6.825-25.596 10.24-13.652 20.478-25.597 34.13-35.836 18.77-15.358 32.423-34.13 44.368-54.607 5.12-13.652 8.532-27.304 8.532-40.955 0-27.304-11.945-52.9-32.423-69.966zM501.73 679.174c-10.238 0-20.477 3.413-29.01 11.945-8.532 6.826-11.945 17.065-11.945 29.01 0 10.24 5.12 20.478 11.946 27.304 6.825 6.826 18.77 11.945 29.01 11.945 10.238 0 22.184-3.413 29.01-11.945 6.825-6.826 11.945-17.065 11.945-27.304 0-10.238-5.12-20.477-11.946-27.303-6.825-8.533-18.77-13.652-29.01-13.652z"
          fill="#FFFFFF" p-id="4957"></path>
</svg>