<?xml version="1.0" standalone="no"?><!DOCTYPE svg PUBLIC "-//W3C//DTD SVG 1.1//EN"
        "http://www.w3.org/Graphics/SVG/1.1/DTD/svg11.dtd">
<svg t="1690886999415" class="icon" viewBox="0 0 1024 1024" version="1.1" xmlns="http://www.w3.org/2000/svg" p-id="9353"
     width="200" height="200">
    <path d="M912.042667 207.957333H427.776l-50.346667-94.122666a64 64 0 0 0-56.490666-33.877334h-209.066667a64 64 0 0 0-64 64v736.085334c0 35.242667 28.757333 64 64 64h800.085333a64 64 0 0 0 64-64V271.872a64 64 0 0 0-64-64z m-371.626667 446.293334V512h-56.832v142.250667H341.333333v56.832h142.250667V853.333333h56.832V711.082667H682.666667v-56.832H540.416z m-428.373333-510.293334h209.066666l68.352 128h522.496v98.048l-1.194666-0.170666H113.237333l-1.194666 0.170666V143.957333z m0 736.085334V783.957333l1.194666-350.122666 798.72 1.194666v349.013334h0.085334v95.914666H111.957333z"
          fill="#212121" p-id="9354"></path>
</svg>